<mxfile host="app.diagrams.net" modified="2023-02-14T13:44:56.829Z" agent="5.0 (Windows NT 10.0; Win64; x64) AppleWebKit/537.36 (KHTML, like Gecko) Chrome/110.0.0.0 Safari/537.36 Edg/110.0.1587.41" etag="nW-8_Y_f-jqa9D6SuL9S" version="20.8.20" type="github">
  <diagram name="第 1 页" id="SZ0V8DZRQNot3-LsfUy4">
    <mxGraphModel dx="1434" dy="796" grid="1" gridSize="10" guides="1" tooltips="1" connect="1" arrows="1" fold="1" page="1" pageScale="1" pageWidth="827" pageHeight="1169" math="0" shadow="0">
      <root>
        <mxCell id="0" />
        <mxCell id="1" parent="0" />
        <mxCell id="R6sS8I7fH-COG0r30bE--2" value="逻辑电路" style="rounded=0;whiteSpace=wrap;html=1;" vertex="1" parent="1">
          <mxGeometry x="80" y="170" width="100" height="140" as="geometry" />
        </mxCell>
        <mxCell id="R6sS8I7fH-COG0r30bE--3" value="" style="ellipse;whiteSpace=wrap;html=1;" vertex="1" parent="1">
          <mxGeometry x="210" y="310" width="30" height="90" as="geometry" />
        </mxCell>
        <mxCell id="R6sS8I7fH-COG0r30bE--4" value="ATE" style="rounded=0;whiteSpace=wrap;html=1;" vertex="1" parent="1">
          <mxGeometry x="280" y="410" width="120" height="60" as="geometry" />
        </mxCell>
        <mxCell id="R6sS8I7fH-COG0r30bE--6" value="" style="rounded=0;whiteSpace=wrap;html=1;" vertex="1" parent="1">
          <mxGeometry x="300" y="170" width="100" height="140" as="geometry" />
        </mxCell>
        <mxCell id="R6sS8I7fH-COG0r30bE--7" value="逻辑电路" style="rounded=0;whiteSpace=wrap;html=1;" vertex="1" parent="1">
          <mxGeometry x="470" y="170" width="100" height="140" as="geometry" />
        </mxCell>
        <mxCell id="R6sS8I7fH-COG0r30bE--8" value="" style="ellipse;whiteSpace=wrap;html=1;" vertex="1" parent="1">
          <mxGeometry x="650" y="230" width="30" height="90" as="geometry" />
        </mxCell>
        <mxCell id="R6sS8I7fH-COG0r30bE--9" value="地址" style="text;html=1;strokeColor=none;fillColor=none;align=center;verticalAlign=middle;whiteSpace=wrap;rounded=0;" vertex="1" parent="1">
          <mxGeometry x="290" y="180" width="60" height="30" as="geometry" />
        </mxCell>
        <mxCell id="R6sS8I7fH-COG0r30bE--10" value="数据" style="text;html=1;strokeColor=none;fillColor=none;align=center;verticalAlign=middle;whiteSpace=wrap;rounded=0;" vertex="1" parent="1">
          <mxGeometry x="290" y="230" width="60" height="30" as="geometry" />
        </mxCell>
        <mxCell id="R6sS8I7fH-COG0r30bE--11" value="控制" style="text;html=1;strokeColor=none;fillColor=none;align=center;verticalAlign=middle;whiteSpace=wrap;rounded=0;" vertex="1" parent="1">
          <mxGeometry x="290" y="280" width="60" height="30" as="geometry" />
        </mxCell>
      </root>
    </mxGraphModel>
  </diagram>
</mxfile>
